<svg xmlns="http://www.w3.org/2000/svg" viewBox="0 0 128 128" role="img" aria-label="Achavelli">
  <rect width="128" height="128" rx="28" fill="#15171a"/>
  <path d="M64 18 93.5 36v35.5c0 19.7-12.1 32.2-29.5 38.5-17.4-6.3-29.5-18.8-29.5-38.5V36L64 18Z" fill="#f5f5f7"/>
  <path d="M64 30 83 41.7v29c0 12.8-7.6 21.8-19 26.8-11.4-5-19-14-19-26.8v-29L64 30Z" fill="#0a84ff"/>
  <circle cx="64" cy="61" r="15" fill="#f5f5f7"/>
  <path d="M63.8 42.5c2.6 10.3 6.7 14.6 17.7 17.8-11 3.2-15.1 7.5-17.7 17.8-2.8-10.3-6.8-14.6-17.8-17.8 11-3.2 15-7.5 17.8-17.8Z" fill="#15171a"/>
</svg>
